<?xml version="1.0" encoding="UTF-8" standalone="no"?>
<!DOCTYPE svg PUBLIC "-//W3C//DTD SVG 1.1//EN"
 "http://www.w3.org/Graphics/SVG/1.1/DTD/svg11.dtd">
<!-- Generated by graphviz version 2.40.1 (20161225.0304)
 -->
<!-- Title: dependencies Pages: 1 -->
<svg width="2715pt" height="355pt"
 viewBox="0.00 0.00 2715.00 355.00" xmlns="http://www.w3.org/2000/svg" xmlns:xlink="http://www.w3.org/1999/xlink">
<g id="graph0" class="graph" transform="scale(1 1) rotate(0) translate(4 351)">
<title>dependencies</title>
<polygon fill="#ffffff" stroke="transparent" points="-4,4 -4,-351 2711,-351 2711,4 -4,4"/>
<text text-anchor="start" x="1332.5091" y="-42.4" font-family="sans-serif" font-weight="bold" font-size="14.00" fill="#000000">Legend</text>
<polygon fill="#ffffb3" stroke="transparent" points="1119.5,-10 1119.5,-30 1139.5,-30 1139.5,-10 1119.5,-10"/>
<text text-anchor="start" x="1143.129" y="-15.4" font-family="sans-serif" font-size="14.00" fill="#000000"> &#160;Declarations</text>
<polygon fill="#8dd3c7" stroke="transparent" points="1232.5,-10 1232.5,-30 1252.5,-30 1252.5,-10 1232.5,-10"/>
<text text-anchor="start" x="1256.2251" y="-15.4" font-family="sans-serif" font-size="14.00" fill="#000000"> &#160;Module</text>
<polygon fill="#80b1d3" stroke="transparent" points="1318.5,-10 1318.5,-30 1338.5,-30 1338.5,-10 1318.5,-10"/>
<text text-anchor="start" x="1342.2812" y="-15.4" font-family="sans-serif" font-size="14.00" fill="#000000"> &#160;Bootstrap</text>
<polygon fill="#fdb462" stroke="transparent" points="1415.5,-10 1415.5,-30 1435.5,-30 1435.5,-10 1415.5,-10"/>
<text text-anchor="start" x="1439.1732" y="-15.4" font-family="sans-serif" font-size="14.00" fill="#000000"> &#160;Providers</text>
<polygon fill="#fb8072" stroke="transparent" points="1511.5,-10 1511.5,-30 1531.5,-30 1531.5,-10 1511.5,-10"/>
<text text-anchor="start" x="1535.2258" y="-15.4" font-family="sans-serif" font-size="14.00" fill="#000000"> &#160;Exports</text>
<g id="clust1" class="cluster">
<title>cluster_AppModule</title>
<polygon fill="none" stroke="#000000" stroke-dasharray="1,5" points="8,-70 8,-339 2355,-339 2355,-70 8,-70"/>
</g>
<g id="clust2" class="cluster">
<title>cluster_AppModule_declarations</title>
<polygon fill="none" stroke="#000000" points="234,-143 234,-195 1539,-195 1539,-143 234,-143"/>
</g>
<g id="clust3" class="cluster">
<title>cluster_AppModule_AppComponent_providers</title>
<polygon fill="none" stroke="#000000" points="1057,-78 1057,-130 1689,-130 1689,-78 1057,-78"/>
</g>
<g id="clust12" class="cluster">
<title>cluster_AppModule_imports</title>
<polygon fill="none" stroke="#000000" points="1547,-143 1547,-195 2347,-195 2347,-143 1547,-143"/>
</g>
<g id="clust14" class="cluster">
<title>cluster_AppModule_bootstrap</title>
<polygon fill="none" stroke="#000000" points="1216,-279 1216,-331 1340,-331 1340,-279 1216,-279"/>
</g>
<g id="clust15" class="cluster">
<title>cluster_AppModule_providers</title>
<polygon fill="none" stroke="#000000" points="16,-143 16,-195 226,-195 226,-143 16,-143"/>
</g>
<g id="clust16" class="cluster">
<title>cluster_AppRoutingModule</title>
<polygon fill="none" stroke="#000000" stroke-dasharray="1,5" points="2363,-203 2363,-271 2699,-271 2699,-203 2363,-203"/>
</g>
<g id="clust18" class="cluster">
<title>cluster_AppRoutingModule_imports</title>
<polygon fill="none" stroke="#000000" points="2497,-211 2497,-263 2691,-263 2691,-211 2497,-211"/>
</g>
<g id="clust19" class="cluster">
<title>cluster_AppRoutingModule_exports</title>
<polygon fill="none" stroke="#000000" points="2371,-211 2371,-263 2489,-263 2489,-211 2371,-211"/>
</g>
<!-- AppComponent -->
<g id="node1" class="node">
<title>AppComponent</title>
<polygon fill="#ffffb3" stroke="#000000" points="1530.9399,-187 1425.0601,-187 1425.0601,-151 1530.9399,-151 1530.9399,-187"/>
<text text-anchor="middle" x="1478" y="-164.8" font-family="Times,serif" font-size="14.00" fill="#000000">AppComponent</text>
</g>
<!-- AppModule -->
<g id="node10" class="node">
<title>AppModule</title>
<polygon fill="#8dd3c7" stroke="#000000" points="1319.6571,-255 1316.6571,-259 1295.6571,-259 1292.6571,-255 1236.3429,-255 1236.3429,-219 1319.6571,-219 1319.6571,-255"/>
<text text-anchor="middle" x="1278" y="-232.8" font-family="Times,serif" font-size="14.00" fill="#000000">AppModule</text>
</g>
<!-- AppComponent&#45;&gt;AppModule -->
<g id="edge1" class="edge">
<title>AppComponent&#45;&gt;AppModule</title>
<path fill="none" stroke="#000000" d="M1478,-187.0091C1478,-203.0494 1478,-224 1478,-224 1478,-224 1329.9266,-224 1329.9266,-224"/>
<polygon fill="#000000" stroke="#000000" points="1329.9266,-220.5001 1319.9266,-224 1329.9265,-227.5001 1329.9266,-220.5001"/>
</g>
<!-- SignupComponent -->
<g id="node2" class="node">
<title>SignupComponent</title>
<polygon fill="#ffffb3" stroke="#000000" points="1407.5056,-187 1286.4944,-187 1286.4944,-151 1407.5056,-151 1407.5056,-187"/>
<text text-anchor="middle" x="1347" y="-164.8" font-family="Times,serif" font-size="14.00" fill="#000000">SignupComponent</text>
</g>
<!-- SignupComponent&#45;&gt;AppModule -->
<g id="edge4" class="edge">
<title>SignupComponent&#45;&gt;AppModule</title>
<path fill="none" stroke="#000000" d="M1303.1627,-187.2228C1303.1627,-187.2228 1303.1627,-208.7269 1303.1627,-208.7269"/>
<polygon fill="#000000" stroke="#000000" points="1299.6628,-208.7269 1303.1627,-218.7269 1306.6628,-208.727 1299.6628,-208.7269"/>
</g>
<!-- SigninComponent -->
<g id="node3" class="node">
<title>SigninComponent</title>
<polygon fill="#ffffb3" stroke="#000000" points="1268.8962,-187 1151.1038,-187 1151.1038,-151 1268.8962,-151 1268.8962,-187"/>
<text text-anchor="middle" x="1210" y="-164.8" font-family="Times,serif" font-size="14.00" fill="#000000">SigninComponent</text>
</g>
<!-- SigninComponent&#45;&gt;AppModule -->
<g id="edge5" class="edge">
<title>SigninComponent&#45;&gt;AppModule</title>
<path fill="none" stroke="#000000" d="M1252.56,-187.2228C1252.56,-187.2228 1252.56,-208.7269 1252.56,-208.7269"/>
<polygon fill="#000000" stroke="#000000" points="1249.06,-208.7269 1252.56,-218.7269 1256.06,-208.727 1249.06,-208.7269"/>
</g>
<!-- HeaderComponent -->
<g id="node4" class="node">
<title>HeaderComponent</title>
<polygon fill="#ffffb3" stroke="#000000" points="1132.7437,-187 1011.2563,-187 1011.2563,-151 1132.7437,-151 1132.7437,-187"/>
<text text-anchor="middle" x="1072" y="-164.8" font-family="Times,serif" font-size="14.00" fill="#000000">HeaderComponent</text>
</g>
<!-- HeaderComponent&#45;&gt;AppModule -->
<g id="edge6" class="edge">
<title>HeaderComponent&#45;&gt;AppModule</title>
<path fill="none" stroke="#000000" d="M1072,-187.0091C1072,-203.0494 1072,-224 1072,-224 1072,-224 1226.3128,-224 1226.3128,-224"/>
<polygon fill="#000000" stroke="#000000" points="1226.3129,-227.5001 1236.3128,-224 1226.3128,-220.5001 1226.3129,-227.5001"/>
</g>
<!-- AdvancedsearchComponent -->
<g id="node5" class="node">
<title>AdvancedsearchComponent</title>
<polygon fill="#ffffb3" stroke="#000000" points="992.8319,-187 819.1681,-187 819.1681,-151 992.8319,-151 992.8319,-187"/>
<text text-anchor="middle" x="906" y="-164.8" font-family="Times,serif" font-size="14.00" fill="#000000">AdvancedsearchComponent</text>
</g>
<!-- AdvancedsearchComponent&#45;&gt;AppModule -->
<g id="edge7" class="edge">
<title>AdvancedsearchComponent&#45;&gt;AppModule</title>
<path fill="none" stroke="#000000" d="M906,-187.0225C906,-204.3734 906,-228 906,-228 906,-228 1226.05,-228 1226.05,-228"/>
<polygon fill="#000000" stroke="#000000" points="1226.05,-231.5001 1236.05,-228 1226.05,-224.5001 1226.05,-231.5001"/>
</g>
<!-- ContactComponent -->
<g id="node6" class="node">
<title>ContactComponent</title>
<polygon fill="#ffffb3" stroke="#000000" points="801.3795,-187 676.6205,-187 676.6205,-151 801.3795,-151 801.3795,-187"/>
<text text-anchor="middle" x="739" y="-164.8" font-family="Times,serif" font-size="14.00" fill="#000000">ContactComponent</text>
</g>
<!-- ContactComponent&#45;&gt;AppModule -->
<g id="edge8" class="edge">
<title>ContactComponent&#45;&gt;AppModule</title>
<path fill="none" stroke="#000000" d="M739,-187.1686C739,-206.0898 739,-233 739,-233 739,-233 1226.1541,-233 1226.1541,-233"/>
<polygon fill="#000000" stroke="#000000" points="1226.1541,-236.5001 1236.1541,-233 1226.154,-229.5001 1226.1541,-236.5001"/>
</g>
<!-- HomePageComponent -->
<g id="node7" class="node">
<title>HomePageComponent</title>
<polygon fill="#ffffb3" stroke="#000000" points="658.2562,-187 515.7438,-187 515.7438,-151 658.2562,-151 658.2562,-187"/>
<text text-anchor="middle" x="587" y="-164.8" font-family="Times,serif" font-size="14.00" fill="#000000">HomePageComponent</text>
</g>
<!-- HomePageComponent&#45;&gt;AppModule -->
<g id="edge9" class="edge">
<title>HomePageComponent&#45;&gt;AppModule</title>
<path fill="none" stroke="#000000" d="M587,-187.2228C587,-207.3652 587,-237 587,-237 587,-237 1226.331,-237 1226.331,-237"/>
<polygon fill="#000000" stroke="#000000" points="1226.331,-240.5001 1236.331,-237 1226.331,-233.5001 1226.331,-240.5001"/>
</g>
<!-- MovieComponent -->
<g id="node8" class="node">
<title>MovieComponent</title>
<polygon fill="#ffffb3" stroke="#000000" points="497.8823,-187 380.1177,-187 380.1177,-151 497.8823,-151 497.8823,-187"/>
<text text-anchor="middle" x="439" y="-164.8" font-family="Times,serif" font-size="14.00" fill="#000000">MovieComponent</text>
</g>
<!-- MovieComponent&#45;&gt;AppModule -->
<g id="edge10" class="edge">
<title>MovieComponent&#45;&gt;AppModule</title>
<path fill="none" stroke="#000000" d="M439,-187.0449C439,-208.6623 439,-242 439,-242 439,-242 1226.1068,-242 1226.1068,-242"/>
<polygon fill="#000000" stroke="#000000" points="1226.1068,-245.5001 1236.1068,-242 1226.1068,-238.5001 1226.1068,-245.5001"/>
</g>
<!-- ProfileComponent -->
<g id="node9" class="node">
<title>ProfileComponent</title>
<polygon fill="#ffffb3" stroke="#000000" points="361.9328,-187 242.0672,-187 242.0672,-151 361.9328,-151 361.9328,-187"/>
<text text-anchor="middle" x="302" y="-164.8" font-family="Times,serif" font-size="14.00" fill="#000000">ProfileComponent</text>
</g>
<!-- ProfileComponent&#45;&gt;AppModule -->
<g id="edge11" class="edge">
<title>ProfileComponent&#45;&gt;AppModule</title>
<path fill="none" stroke="#000000" d="M302,-187.2479C302,-210.0179 302,-246 302,-246 302,-246 1226.0625,-246 1226.0625,-246"/>
<polygon fill="#000000" stroke="#000000" points="1226.0625,-249.5001 1236.0625,-246 1226.0625,-242.5001 1226.0625,-249.5001"/>
</g>
<!-- AppComponent  -->
<g id="node19" class="node">
<title>AppComponent </title>
<polygon fill="#80b1d3" stroke="#000000" points="1332.439,-323 1223.561,-323 1223.561,-287 1332.439,-287 1332.439,-323"/>
<text text-anchor="middle" x="1278" y="-300.8" font-family="Times,serif" font-size="14.00" fill="#000000">AppComponent </text>
</g>
<!-- AppModule&#45;&gt;AppComponent  -->
<g id="edge18" class="edge">
<title>AppModule&#45;&gt;AppComponent </title>
<path fill="none" stroke="#000000" stroke-dasharray="1,5" d="M1278,-255.2228C1278,-255.2228 1278,-276.7269 1278,-276.7269"/>
<polygon fill="#000000" stroke="#000000" points="1274.5001,-276.7269 1278,-286.7269 1281.5001,-276.727 1274.5001,-276.7269"/>
</g>
<!-- Location -->
<g id="node11" class="node">
<title>Location</title>
<ellipse fill="#fdb462" stroke="#000000" cx="1636" cy="-104" rx="45.2247" ry="18"/>
<text text-anchor="middle" x="1636" y="-99.8" font-family="Times,serif" font-size="14.00" fill="#000000">Location</text>
</g>
<!-- Location&#45;&gt;AppComponent -->
<g id="edge2" class="edge">
<title>Location&#45;&gt;AppComponent</title>
<path fill="none" stroke="#000000" d="M1621.0395,-121.2732C1621.0395,-129.2576 1621.0395,-137 1621.0395,-137 1621.0395,-137 1495.5732,-137 1495.5732,-137 1495.5732,-137 1495.5732,-140.7566 1495.5732,-140.7566"/>
<polygon fill="#000000" stroke="#000000" points="1492.0733,-140.7566 1495.5732,-150.7566 1499.0733,-140.7566 1492.0733,-140.7566"/>
</g>
<!-- { provide: LocationStrategy, useClass: PathLocationStrategy } -->
<g id="node12" class="node">
<title>{ provide: LocationStrategy, useClass: PathLocationStrategy }</title>
<ellipse fill="#fdb462" stroke="#000000" cx="1319" cy="-104" rx="253.7592" ry="18"/>
<text text-anchor="middle" x="1319" y="-99.8" font-family="Times,serif" font-size="14.00" fill="#000000">{ provide: LocationStrategy, useClass: PathLocationStrategy }</text>
</g>
<!-- { provide: LocationStrategy, useClass: PathLocationStrategy }&#45;&gt;AppComponent -->
<g id="edge3" class="edge">
<title>{ provide: LocationStrategy, useClass: PathLocationStrategy }&#45;&gt;AppComponent</title>
<path fill="none" stroke="#000000" d="M1460.4268,-119.0757C1460.4268,-119.0757 1460.4268,-140.7642 1460.4268,-140.7642"/>
<polygon fill="#000000" stroke="#000000" points="1456.9269,-140.7642 1460.4268,-150.7642 1463.9269,-140.7642 1456.9269,-140.7642"/>
</g>
<!-- BrowserModule -->
<g id="node13" class="node">
<title>BrowserModule</title>
<polygon fill="#8dd3c7" stroke="#000000" points="2192.4734,-187 2189.4734,-191 2168.4734,-191 2165.4734,-187 2085.5266,-187 2085.5266,-151 2192.4734,-151 2192.4734,-187"/>
<text text-anchor="middle" x="2139" y="-164.8" font-family="Times,serif" font-size="14.00" fill="#000000">BrowserModule</text>
</g>
<!-- BrowserModule&#45;&gt;AppModule -->
<g id="edge12" class="edge">
<title>BrowserModule&#45;&gt;AppModule</title>
<path fill="none" stroke="#000000" d="M2139,-187.2479C2139,-210.0179 2139,-246 2139,-246 2139,-246 1329.8188,-246 1329.8188,-246"/>
<polygon fill="#000000" stroke="#000000" points="1329.8188,-242.5001 1319.8188,-246 1329.8188,-249.5001 1329.8188,-242.5001"/>
</g>
<!-- FormsModule -->
<g id="node14" class="node">
<title>FormsModule</title>
<polygon fill="#8dd3c7" stroke="#000000" points="2067.8288,-187 2064.8288,-191 2043.8288,-191 2040.8288,-187 1972.1712,-187 1972.1712,-151 2067.8288,-151 2067.8288,-187"/>
<text text-anchor="middle" x="2020" y="-164.8" font-family="Times,serif" font-size="14.00" fill="#000000">FormsModule</text>
</g>
<!-- FormsModule&#45;&gt;AppModule -->
<g id="edge13" class="edge">
<title>FormsModule&#45;&gt;AppModule</title>
<path fill="none" stroke="#000000" d="M2020,-187.0449C2020,-208.6623 2020,-242 2020,-242 2020,-242 1329.7507,-242 1329.7507,-242"/>
<polygon fill="#000000" stroke="#000000" points="1329.7508,-238.5001 1319.7507,-242 1329.7507,-245.5001 1329.7508,-238.5001"/>
</g>
<!-- HttpModule -->
<g id="node15" class="node">
<title>HttpModule</title>
<polygon fill="#8dd3c7" stroke="#000000" points="1954.4387,-187 1951.4387,-191 1930.4387,-191 1927.4387,-187 1869.5613,-187 1869.5613,-151 1954.4387,-151 1954.4387,-187"/>
<text text-anchor="middle" x="1912" y="-164.8" font-family="Times,serif" font-size="14.00" fill="#000000">HttpModule</text>
</g>
<!-- HttpModule&#45;&gt;AppModule -->
<g id="edge14" class="edge">
<title>HttpModule&#45;&gt;AppModule</title>
<path fill="none" stroke="#000000" d="M1912,-187.2228C1912,-207.3652 1912,-237 1912,-237 1912,-237 1330.0895,-237 1330.0895,-237"/>
<polygon fill="#000000" stroke="#000000" points="1330.0895,-233.5001 1320.0895,-237 1330.0895,-240.5001 1330.0895,-233.5001"/>
</g>
<!-- MultiselectDropdownModule -->
<g id="node16" class="node">
<title>MultiselectDropdownModule</title>
<polygon fill="#8dd3c7" stroke="#000000" points="1852.4101,-187 1849.4101,-191 1828.4101,-191 1825.4101,-187 1669.5899,-187 1669.5899,-151 1852.4101,-151 1852.4101,-187"/>
<text text-anchor="middle" x="1761" y="-164.8" font-family="Times,serif" font-size="14.00" fill="#000000">MultiselectDropdownModule</text>
</g>
<!-- MultiselectDropdownModule&#45;&gt;AppModule -->
<g id="edge15" class="edge">
<title>MultiselectDropdownModule&#45;&gt;AppModule</title>
<path fill="none" stroke="#000000" d="M1761,-187.1686C1761,-206.0898 1761,-233 1761,-233 1761,-233 1330.0181,-233 1330.0181,-233"/>
<polygon fill="#000000" stroke="#000000" points="1330.0182,-229.5001 1320.0181,-233 1330.0181,-236.5001 1330.0182,-229.5001"/>
</g>
<!-- AppRoutingModule -->
<g id="node17" class="node">
<title>AppRoutingModule</title>
<polygon fill="#8dd3c7" stroke="#000000" points="2339.2744,-187 2336.2744,-191 2315.2744,-191 2312.2744,-187 2210.7256,-187 2210.7256,-151 2339.2744,-151 2339.2744,-187"/>
<text text-anchor="middle" x="2275" y="-164.8" font-family="Times,serif" font-size="14.00" fill="#000000">AppRoutingModule</text>
</g>
<!-- AppRoutingModule&#45;&gt;AppModule -->
<g id="edge16" class="edge">
<title>AppRoutingModule&#45;&gt;AppModule</title>
<path fill="none" stroke="#000000" d="M2275,-187.1985C2275,-211.3563 2275,-251 2275,-251 2275,-251 1329.8862,-251 1329.8862,-251"/>
<polygon fill="#000000" stroke="#000000" points="1329.8863,-247.5001 1319.8862,-251 1329.8862,-254.5001 1329.8863,-247.5001"/>
</g>
<!-- RouterModule  -->
<g id="node22" class="node">
<title>RouterModule </title>
<polygon fill="#fb8072" stroke="#000000" points="2480.6523,-255 2379.3477,-255 2379.3477,-219 2480.6523,-219 2480.6523,-255"/>
<text text-anchor="middle" x="2430" y="-232.8" font-family="Times,serif" font-size="14.00" fill="#000000">RouterModule </text>
</g>
<!-- AppRoutingModule&#45;&gt;RouterModule  -->
<g id="edge21" class="edge">
<title>AppRoutingModule&#45;&gt;RouterModule </title>
<path fill="none" stroke="#000000" stroke-dasharray="5,2" d="M2339.3874,-175C2381.9734,-175 2430,-175 2430,-175 2430,-175 2430,-208.7333 2430,-208.7333"/>
<polygon fill="#000000" stroke="#000000" points="2426.5001,-208.7333 2430,-218.7333 2433.5001,-208.7333 2426.5001,-208.7333"/>
</g>
<!-- RatingModule -->
<g id="node18" class="node">
<title>RatingModule</title>
<polygon fill="#8dd3c7" stroke="#000000" points="1651.3823,-187 1648.3823,-191 1627.3823,-191 1624.3823,-187 1554.6177,-187 1554.6177,-151 1651.3823,-151 1651.3823,-187"/>
<text text-anchor="middle" x="1603" y="-164.8" font-family="Times,serif" font-size="14.00" fill="#000000">RatingModule</text>
</g>
<!-- RatingModule&#45;&gt;AppModule -->
<g id="edge17" class="edge">
<title>RatingModule&#45;&gt;AppModule</title>
<path fill="none" stroke="#000000" d="M1603,-187.0225C1603,-204.3734 1603,-228 1603,-228 1603,-228 1329.8227,-228 1329.8227,-228"/>
<polygon fill="#000000" stroke="#000000" points="1329.8228,-224.5001 1319.8227,-228 1329.8227,-231.5001 1329.8228,-224.5001"/>
</g>
<!-- AuthenticationService -->
<g id="node20" class="node">
<title>AuthenticationService</title>
<ellipse fill="#fdb462" stroke="#000000" cx="121" cy="-169" rx="97.2683" ry="18"/>
<text text-anchor="middle" x="121" y="-164.8" font-family="Times,serif" font-size="14.00" fill="#000000">AuthenticationService</text>
</g>
<!-- AuthenticationService&#45;&gt;AppModule -->
<g id="edge19" class="edge">
<title>AuthenticationService&#45;&gt;AppModule</title>
<path fill="none" stroke="#000000" d="M121,-187.1985C121,-211.3563 121,-251 121,-251 121,-251 1226.1382,-251 1226.1382,-251"/>
<polygon fill="#000000" stroke="#000000" points="1226.1383,-254.5001 1236.1382,-251 1226.1382,-247.5001 1226.1383,-254.5001"/>
</g>
<!-- RouterModule.forRoot(args) -->
<g id="node21" class="node">
<title>RouterModule.forRoot(args)</title>
<polygon fill="#8dd3c7" stroke="#000000" points="2682.8419,-255 2679.8419,-259 2658.8419,-259 2655.8419,-255 2505.1581,-255 2505.1581,-219 2682.8419,-219 2682.8419,-255"/>
<text text-anchor="middle" x="2594" y="-232.8" font-family="Times,serif" font-size="14.00" fill="#000000">RouterModule.forRoot(args)</text>
</g>
<!-- RouterModule.forRoot(args)&#45;&gt;AppRoutingModule -->
<g id="edge20" class="edge">
<title>RouterModule.forRoot(args)&#45;&gt;AppRoutingModule</title>
<path fill="none" stroke="#000000" d="M2594,-218.7079C2594,-196.7943 2594,-163 2594,-163 2594,-163 2349.5544,-163 2349.5544,-163"/>
<polygon fill="#000000" stroke="#000000" points="2349.5544,-159.5001 2339.5544,-163 2349.5544,-166.5001 2349.5544,-159.5001"/>
</g>
</g>
</svg>
