<?xml version="1.0" encoding="UTF-8" standalone="no"?>
<!DOCTYPE svg PUBLIC "-//W3C//DTD SVG 1.1//EN"
 "http://www.w3.org/Graphics/SVG/1.1/DTD/svg11.dtd">
<!-- Generated by graphviz version 2.40.1 (20161225.0304)
 -->
<!-- Title: dependencies Pages: 1 -->
<svg width="2371pt" height="349pt"
 viewBox="0.00 0.00 2371.00 349.00" xmlns="http://www.w3.org/2000/svg" xmlns:xlink="http://www.w3.org/1999/xlink">
<g id="graph0" class="graph" transform="scale(1 1) rotate(0) translate(4 345)">
<title>dependencies</title>
<polygon fill="#ffffff" stroke="transparent" points="-4,4 -4,-345 2367,-345 2367,4 -4,4"/>
<text text-anchor="start" x="1160.5091" y="-42.4" font-family="sans-serif" font-weight="bold" font-size="14.00" fill="#000000">Legend</text>
<polygon fill="#ffffb3" stroke="transparent" points="947.5,-10 947.5,-30 967.5,-30 967.5,-10 947.5,-10"/>
<text text-anchor="start" x="971.129" y="-15.4" font-family="sans-serif" font-size="14.00" fill="#000000"> &#160;Declarations</text>
<polygon fill="#8dd3c7" stroke="transparent" points="1060.5,-10 1060.5,-30 1080.5,-30 1080.5,-10 1060.5,-10"/>
<text text-anchor="start" x="1084.2251" y="-15.4" font-family="sans-serif" font-size="14.00" fill="#000000"> &#160;Module</text>
<polygon fill="#80b1d3" stroke="transparent" points="1146.5,-10 1146.5,-30 1166.5,-30 1166.5,-10 1146.5,-10"/>
<text text-anchor="start" x="1170.2812" y="-15.4" font-family="sans-serif" font-size="14.00" fill="#000000"> &#160;Bootstrap</text>
<polygon fill="#fdb462" stroke="transparent" points="1243.5,-10 1243.5,-30 1263.5,-30 1263.5,-10 1243.5,-10"/>
<text text-anchor="start" x="1267.1732" y="-15.4" font-family="sans-serif" font-size="14.00" fill="#000000"> &#160;Providers</text>
<polygon fill="#fb8072" stroke="transparent" points="1339.5,-10 1339.5,-30 1359.5,-30 1359.5,-10 1339.5,-10"/>
<text text-anchor="start" x="1363.2258" y="-15.4" font-family="sans-serif" font-size="14.00" fill="#000000"> &#160;Exports</text>
<g id="clust1" class="cluster">
<title>cluster_AppModule</title>
<polygon fill="none" stroke="#000000" stroke-dasharray="1,5" points="8,-70 8,-333 2355,-333 2355,-70 8,-70"/>
</g>
<g id="clust2" class="cluster">
<title>cluster_AppModule_declarations</title>
<polygon fill="none" stroke="#000000" points="1042,-143 1042,-195 2347,-195 2347,-143 1042,-143"/>
</g>
<g id="clust3" class="cluster">
<title>cluster_AppModule_AppComponent_providers</title>
<polygon fill="none" stroke="#000000" points="1711,-78 1711,-130 2343,-130 2343,-78 1711,-78"/>
</g>
<g id="clust12" class="cluster">
<title>cluster_AppModule_imports</title>
<polygon fill="none" stroke="#000000" points="234,-143 234,-195 1034,-195 1034,-143 234,-143"/>
</g>
<g id="clust14" class="cluster">
<title>cluster_AppModule_bootstrap</title>
<polygon fill="none" stroke="#000000" points="1116,-273 1116,-325 1240,-325 1240,-273 1116,-273"/>
</g>
<g id="clust15" class="cluster">
<title>cluster_AppModule_providers</title>
<polygon fill="none" stroke="#000000" points="16,-143 16,-195 226,-195 226,-143 16,-143"/>
</g>
<!-- AppComponent -->
<g id="node1" class="node">
<title>AppComponent</title>
<polygon fill="#ffffb3" stroke="#000000" points="2338.9399,-187 2233.0601,-187 2233.0601,-151 2338.9399,-151 2338.9399,-187"/>
<text text-anchor="middle" x="2286" y="-164.8" font-family="Times,serif" font-size="14.00" fill="#000000">AppComponent</text>
</g>
<!-- AppModule -->
<g id="node10" class="node">
<title>AppModule</title>
<polygon fill="#8dd3c7" stroke="#000000" points="1219.6571,-252 1216.6571,-256 1195.6571,-256 1192.6571,-252 1136.3429,-252 1136.3429,-216 1219.6571,-216 1219.6571,-252"/>
<text text-anchor="middle" x="1178" y="-229.8" font-family="Times,serif" font-size="14.00" fill="#000000">AppModule</text>
</g>
<!-- AppComponent&#45;&gt;AppModule -->
<g id="edge1" class="edge">
<title>AppComponent&#45;&gt;AppModule</title>
<path fill="none" stroke="#000000" d="M2286,-187.3228C2286,-210.6602 2286,-248 2286,-248 2286,-248 1229.7467,-248 1229.7467,-248"/>
<polygon fill="#000000" stroke="#000000" points="1229.7467,-244.5001 1219.7467,-248 1229.7467,-251.5001 1229.7467,-244.5001"/>
</g>
<!-- SignupComponent -->
<g id="node2" class="node">
<title>SignupComponent</title>
<polygon fill="#ffffb3" stroke="#000000" points="2215.5056,-187 2094.4944,-187 2094.4944,-151 2215.5056,-151 2215.5056,-187"/>
<text text-anchor="middle" x="2155" y="-164.8" font-family="Times,serif" font-size="14.00" fill="#000000">SignupComponent</text>
</g>
<!-- SignupComponent&#45;&gt;AppModule -->
<g id="edge4" class="edge">
<title>SignupComponent&#45;&gt;AppModule</title>
<path fill="none" stroke="#000000" d="M2155,-187.2921C2155,-209.2057 2155,-243 2155,-243 2155,-243 1229.6679,-243 1229.6679,-243"/>
<polygon fill="#000000" stroke="#000000" points="1229.668,-239.5001 1219.6679,-243 1229.6679,-246.5001 1229.668,-239.5001"/>
</g>
<!-- SigninComponent -->
<g id="node3" class="node">
<title>SigninComponent</title>
<polygon fill="#ffffb3" stroke="#000000" points="2076.8962,-187 1959.1038,-187 1959.1038,-151 2076.8962,-151 2076.8962,-187"/>
<text text-anchor="middle" x="2018" y="-164.8" font-family="Times,serif" font-size="14.00" fill="#000000">SigninComponent</text>
</g>
<!-- SigninComponent&#45;&gt;AppModule -->
<g id="edge5" class="edge">
<title>SigninComponent&#45;&gt;AppModule</title>
<path fill="none" stroke="#000000" d="M2018,-187.0267C2018,-207.7672 2018,-239 2018,-239 2018,-239 1229.9431,-239 1229.9431,-239"/>
<polygon fill="#000000" stroke="#000000" points="1229.9432,-235.5001 1219.9431,-239 1229.9431,-242.5001 1229.9432,-235.5001"/>
</g>
<!-- HeaderComponent -->
<g id="node4" class="node">
<title>HeaderComponent</title>
<polygon fill="#ffffb3" stroke="#000000" points="1940.7437,-187 1819.2563,-187 1819.2563,-151 1940.7437,-151 1940.7437,-187"/>
<text text-anchor="middle" x="1880" y="-164.8" font-family="Times,serif" font-size="14.00" fill="#000000">HeaderComponent</text>
</g>
<!-- HeaderComponent&#45;&gt;AppModule -->
<g id="edge6" class="edge">
<title>HeaderComponent&#45;&gt;AppModule</title>
<path fill="none" stroke="#000000" d="M1880,-187.1061C1880,-206.3391 1880,-234 1880,-234 1880,-234 1229.811,-234 1229.811,-234"/>
<polygon fill="#000000" stroke="#000000" points="1229.811,-230.5001 1219.811,-234 1229.811,-237.5001 1229.811,-230.5001"/>
</g>
<!-- AdvancedsearchComponent -->
<g id="node5" class="node">
<title>AdvancedsearchComponent</title>
<polygon fill="#ffffb3" stroke="#000000" points="1800.8319,-187 1627.1681,-187 1627.1681,-151 1800.8319,-151 1800.8319,-187"/>
<text text-anchor="middle" x="1714" y="-164.8" font-family="Times,serif" font-size="14.00" fill="#000000">AdvancedsearchComponent</text>
</g>
<!-- AdvancedsearchComponent&#45;&gt;AppModule -->
<g id="edge7" class="edge">
<title>AdvancedsearchComponent&#45;&gt;AppModule</title>
<path fill="none" stroke="#000000" d="M1714,-187.302C1714,-205.2699 1714,-230 1714,-230 1714,-230 1230.059,-230 1230.059,-230"/>
<polygon fill="#000000" stroke="#000000" points="1230.0591,-226.5001 1220.059,-230 1230.059,-233.5001 1230.0591,-226.5001"/>
</g>
<!-- ContactComponent -->
<g id="node6" class="node">
<title>ContactComponent</title>
<polygon fill="#ffffb3" stroke="#000000" points="1609.3795,-187 1484.6205,-187 1484.6205,-151 1609.3795,-151 1609.3795,-187"/>
<text text-anchor="middle" x="1547" y="-164.8" font-family="Times,serif" font-size="14.00" fill="#000000">ContactComponent</text>
</g>
<!-- ContactComponent&#45;&gt;AppModule -->
<g id="edge8" class="edge">
<title>ContactComponent&#45;&gt;AppModule</title>
<path fill="none" stroke="#000000" d="M1547,-187.027C1547,-203.3976 1547,-225 1547,-225 1547,-225 1229.9697,-225 1229.9697,-225"/>
<polygon fill="#000000" stroke="#000000" points="1229.9698,-221.5001 1219.9697,-225 1229.9697,-228.5001 1229.9698,-221.5001"/>
</g>
<!-- HomePageComponent -->
<g id="node7" class="node">
<title>HomePageComponent</title>
<polygon fill="#ffffb3" stroke="#000000" points="1466.2562,-187 1323.7438,-187 1323.7438,-151 1466.2562,-151 1466.2562,-187"/>
<text text-anchor="middle" x="1395" y="-164.8" font-family="Times,serif" font-size="14.00" fill="#000000">HomePageComponent</text>
</g>
<!-- HomePageComponent&#45;&gt;AppModule -->
<g id="edge9" class="edge">
<title>HomePageComponent&#45;&gt;AppModule</title>
<path fill="none" stroke="#000000" d="M1395,-187.1871C1395,-202.1824 1395,-221 1395,-221 1395,-221 1229.8398,-221 1229.8398,-221"/>
<polygon fill="#000000" stroke="#000000" points="1229.8398,-217.5001 1219.8398,-221 1229.8397,-224.5001 1229.8398,-217.5001"/>
</g>
<!-- MovieComponent -->
<g id="node8" class="node">
<title>MovieComponent</title>
<polygon fill="#ffffb3" stroke="#000000" points="1305.8823,-187 1188.1177,-187 1188.1177,-151 1305.8823,-151 1305.8823,-187"/>
<text text-anchor="middle" x="1247" y="-164.8" font-family="Times,serif" font-size="14.00" fill="#000000">MovieComponent</text>
</g>
<!-- MovieComponent&#45;&gt;AppModule -->
<g id="edge10" class="edge">
<title>MovieComponent&#45;&gt;AppModule</title>
<path fill="none" stroke="#000000" d="M1203.9436,-187.1061C1203.9436,-187.1061 1203.9436,-205.991 1203.9436,-205.991"/>
<polygon fill="#000000" stroke="#000000" points="1200.4436,-205.9909 1203.9436,-215.991 1207.4436,-205.991 1200.4436,-205.9909"/>
</g>
<!-- ProfileComponent -->
<g id="node9" class="node">
<title>ProfileComponent</title>
<polygon fill="#ffffb3" stroke="#000000" points="1169.9328,-187 1050.0672,-187 1050.0672,-151 1169.9328,-151 1169.9328,-187"/>
<text text-anchor="middle" x="1110" y="-164.8" font-family="Times,serif" font-size="14.00" fill="#000000">ProfileComponent</text>
</g>
<!-- ProfileComponent&#45;&gt;AppModule -->
<g id="edge11" class="edge">
<title>ProfileComponent&#45;&gt;AppModule</title>
<path fill="none" stroke="#000000" d="M1152.9439,-187.1061C1152.9439,-187.1061 1152.9439,-205.991 1152.9439,-205.991"/>
<polygon fill="#000000" stroke="#000000" points="1149.444,-205.9909 1152.9439,-215.991 1156.444,-205.991 1149.444,-205.9909"/>
</g>
<!-- AppComponent  -->
<g id="node19" class="node">
<title>AppComponent </title>
<polygon fill="#80b1d3" stroke="#000000" points="1232.439,-317 1123.561,-317 1123.561,-281 1232.439,-281 1232.439,-317"/>
<text text-anchor="middle" x="1178" y="-294.8" font-family="Times,serif" font-size="14.00" fill="#000000">AppComponent </text>
</g>
<!-- AppModule&#45;&gt;AppComponent  -->
<g id="edge18" class="edge">
<title>AppModule&#45;&gt;AppComponent </title>
<path fill="none" stroke="#000000" stroke-dasharray="1,5" d="M1178,-252.1061C1178,-252.1061 1178,-270.991 1178,-270.991"/>
<polygon fill="#000000" stroke="#000000" points="1174.5001,-270.9909 1178,-280.991 1181.5001,-270.991 1174.5001,-270.9909"/>
</g>
<!-- Location -->
<g id="node11" class="node">
<title>Location</title>
<ellipse fill="#fdb462" stroke="#000000" cx="2290" cy="-104" rx="45.2247" ry="18"/>
<text text-anchor="middle" x="2290" y="-99.8" font-family="Times,serif" font-size="14.00" fill="#000000">Location</text>
</g>
<!-- Location&#45;&gt;AppComponent -->
<g id="edge2" class="edge">
<title>Location&#45;&gt;AppComponent</title>
<path fill="none" stroke="#000000" d="M2290,-122.1061C2290,-122.1061 2290,-140.991 2290,-140.991"/>
<polygon fill="#000000" stroke="#000000" points="2286.5001,-140.9909 2290,-150.991 2293.5001,-140.991 2286.5001,-140.9909"/>
</g>
<!-- { provide: LocationStrategy, useClass: PathLocationStrategy } -->
<g id="node12" class="node">
<title>{ provide: LocationStrategy, useClass: PathLocationStrategy }</title>
<ellipse fill="#fdb462" stroke="#000000" cx="1973" cy="-104" rx="253.7592" ry="18"/>
<text text-anchor="middle" x="1973" y="-99.8" font-family="Times,serif" font-size="14.00" fill="#000000">{ provide: LocationStrategy, useClass: PathLocationStrategy }</text>
</g>
<!-- { provide: LocationStrategy, useClass: PathLocationStrategy }&#45;&gt;AppComponent -->
<g id="edge3" class="edge">
<title>{ provide: LocationStrategy, useClass: PathLocationStrategy }&#45;&gt;AppComponent</title>
<path fill="none" stroke="#000000" d="M2221.0662,-107.8714C2221.0662,-121.8647 2221.0662,-169 2221.0662,-169 2221.0662,-169 2223.2797,-169 2223.2797,-169"/>
<polygon fill="#000000" stroke="#000000" points="2223.2798,-172.5001 2233.2797,-169 2223.2797,-165.5001 2223.2798,-172.5001"/>
</g>
<!-- BrowserModule -->
<g id="node13" class="node">
<title>BrowserModule</title>
<polygon fill="#8dd3c7" stroke="#000000" points="1026.4734,-187 1023.4734,-191 1002.4734,-191 999.4734,-187 919.5266,-187 919.5266,-151 1026.4734,-151 1026.4734,-187"/>
<text text-anchor="middle" x="973" y="-164.8" font-family="Times,serif" font-size="14.00" fill="#000000">BrowserModule</text>
</g>
<!-- BrowserModule&#45;&gt;AppModule -->
<g id="edge12" class="edge">
<title>BrowserModule&#45;&gt;AppModule</title>
<path fill="none" stroke="#000000" d="M973,-187.1871C973,-202.1824 973,-221 973,-221 973,-221 1126.0205,-221 1126.0205,-221"/>
<polygon fill="#000000" stroke="#000000" points="1126.0205,-224.5001 1136.0205,-221 1126.0205,-217.5001 1126.0205,-224.5001"/>
</g>
<!-- FormsModule -->
<g id="node14" class="node">
<title>FormsModule</title>
<polygon fill="#8dd3c7" stroke="#000000" points="901.8288,-187 898.8288,-191 877.8288,-191 874.8288,-187 806.1712,-187 806.1712,-151 901.8288,-151 901.8288,-187"/>
<text text-anchor="middle" x="854" y="-164.8" font-family="Times,serif" font-size="14.00" fill="#000000">FormsModule</text>
</g>
<!-- FormsModule&#45;&gt;AppModule -->
<g id="edge13" class="edge">
<title>FormsModule&#45;&gt;AppModule</title>
<path fill="none" stroke="#000000" d="M854,-187.027C854,-203.3976 854,-225 854,-225 854,-225 1126.306,-225 1126.306,-225"/>
<polygon fill="#000000" stroke="#000000" points="1126.306,-228.5001 1136.306,-225 1126.3059,-221.5001 1126.306,-228.5001"/>
</g>
<!-- HttpModule -->
<g id="node15" class="node">
<title>HttpModule</title>
<polygon fill="#8dd3c7" stroke="#000000" points="788.4387,-187 785.4387,-191 764.4387,-191 761.4387,-187 703.5613,-187 703.5613,-151 788.4387,-151 788.4387,-187"/>
<text text-anchor="middle" x="746" y="-164.8" font-family="Times,serif" font-size="14.00" fill="#000000">HttpModule</text>
</g>
<!-- HttpModule&#45;&gt;AppModule -->
<g id="edge14" class="edge">
<title>HttpModule&#45;&gt;AppModule</title>
<path fill="none" stroke="#000000" d="M746,-187.302C746,-205.2699 746,-230 746,-230 746,-230 1126.1855,-230 1126.1855,-230"/>
<polygon fill="#000000" stroke="#000000" points="1126.1855,-233.5001 1136.1855,-230 1126.1855,-226.5001 1126.1855,-233.5001"/>
</g>
<!-- MultiselectDropdownModule -->
<g id="node16" class="node">
<title>MultiselectDropdownModule</title>
<polygon fill="#8dd3c7" stroke="#000000" points="686.4101,-187 683.4101,-191 662.4101,-191 659.4101,-187 503.5899,-187 503.5899,-151 686.4101,-151 686.4101,-187"/>
<text text-anchor="middle" x="595" y="-164.8" font-family="Times,serif" font-size="14.00" fill="#000000">MultiselectDropdownModule</text>
</g>
<!-- MultiselectDropdownModule&#45;&gt;AppModule -->
<g id="edge15" class="edge">
<title>MultiselectDropdownModule&#45;&gt;AppModule</title>
<path fill="none" stroke="#000000" d="M595,-187.1061C595,-206.3391 595,-234 595,-234 595,-234 1126.0721,-234 1126.0721,-234"/>
<polygon fill="#000000" stroke="#000000" points="1126.0721,-237.5001 1136.0721,-234 1126.072,-230.5001 1126.0721,-237.5001"/>
</g>
<!-- AppRoutingModule -->
<g id="node17" class="node">
<title>AppRoutingModule</title>
<polygon fill="#8dd3c7" stroke="#000000" points="485.2744,-187 482.2744,-191 461.2744,-191 458.2744,-187 356.7256,-187 356.7256,-151 485.2744,-151 485.2744,-187"/>
<text text-anchor="middle" x="421" y="-164.8" font-family="Times,serif" font-size="14.00" fill="#000000">AppRoutingModule</text>
</g>
<!-- AppRoutingModule&#45;&gt;AppModule -->
<g id="edge16" class="edge">
<title>AppRoutingModule&#45;&gt;AppModule</title>
<path fill="none" stroke="#000000" d="M421,-187.0267C421,-207.7672 421,-239 421,-239 421,-239 1126.2221,-239 1126.2221,-239"/>
<polygon fill="#000000" stroke="#000000" points="1126.2221,-242.5001 1136.2221,-239 1126.2221,-235.5001 1126.2221,-242.5001"/>
</g>
<!-- RatingModule -->
<g id="node18" class="node">
<title>RatingModule</title>
<polygon fill="#8dd3c7" stroke="#000000" points="338.3823,-187 335.3823,-191 314.3823,-191 311.3823,-187 241.6177,-187 241.6177,-151 338.3823,-151 338.3823,-187"/>
<text text-anchor="middle" x="290" y="-164.8" font-family="Times,serif" font-size="14.00" fill="#000000">RatingModule</text>
</g>
<!-- RatingModule&#45;&gt;AppModule -->
<g id="edge17" class="edge">
<title>RatingModule&#45;&gt;AppModule</title>
<path fill="none" stroke="#000000" d="M290,-187.2921C290,-209.2057 290,-243 290,-243 290,-243 1126.0646,-243 1126.0646,-243"/>
<polygon fill="#000000" stroke="#000000" points="1126.0646,-246.5001 1136.0646,-243 1126.0646,-239.5001 1126.0646,-246.5001"/>
</g>
<!-- AuthenticationService -->
<g id="node20" class="node">
<title>AuthenticationService</title>
<ellipse fill="#fdb462" stroke="#000000" cx="121" cy="-169" rx="97.2683" ry="18"/>
<text text-anchor="middle" x="121" y="-164.8" font-family="Times,serif" font-size="14.00" fill="#000000">AuthenticationService</text>
</g>
<!-- AuthenticationService&#45;&gt;AppModule -->
<g id="edge19" class="edge">
<title>AuthenticationService&#45;&gt;AppModule</title>
<path fill="none" stroke="#000000" d="M121,-187.3228C121,-210.6602 121,-248 121,-248 121,-248 1126.2388,-248 1126.2388,-248"/>
<polygon fill="#000000" stroke="#000000" points="1126.2388,-251.5001 1136.2388,-248 1126.2388,-244.5001 1126.2388,-251.5001"/>
</g>
</g>
</svg>
